<svg width="120" height="120" viewBox="0 0 120 120" fill="none" xmlns="http://www.w3.org/2000/svg">
<path d="M97.5 65C97.5 69.1421 94.1421 72.5 90 72.5C85.8579 72.5 82.5 69.1421 82.5 65C82.5 60.8579 85.8579 57.5 90 57.5C94.1421 57.5 97.5 60.8579 97.5 65Z" fill="#6FB0FF" stroke="#1C274C" stroke-width="4"/>
<path d="M92.5 89.5C96.3333 92.8333 104 99.6 104 100L94.5 105.5L81.5 109L65 110L46 109.5L30.5 106.5L19 103L13.5 100L12.5 96.5L15.5 93L31.5 77.5L41.5 70.5H46L51.5 73L68 89.5H73L79.5 87.5L87.5 87L92.5 89.5Z" fill="#6FB0FF"/>
<path d="M105 100L92.5218 89.2571C88.4978 85.7928 82.5052 85.4478 78.0759 88.4255L76.9216 89.2015C73.8435 91.2708 69.6559 90.9238 66.9957 88.3791L50.3903 72.4945C47.0759 69.324 41.7594 69.1547 38.2319 72.1072L31.4516 77.7824L12.5 95.5176" stroke="#1C274C" stroke-width="4" stroke-linecap="round"/>
<path d="M110 29.2992C110 25.3264 106.047 21.6697 99.4148 18.7649C93.5415 16.1927 87.5 21.0991 87.5 27.5109V43.5983M110 29.2992V92.8815C110 102.336 87.6142 110 60 110C32.3858 110 10 102.336 10 92.8815V29.2992M110 29.2992C110 35.2753 101.056 40.5362 87.5 43.5983M10 29.2992C10 25.3264 13.9528 21.6697 20.5852 18.7649C26.4585 16.1927 32.5 21.0991 32.5 27.5109V43.5983M10 29.2992C10 35.2753 18.9444 40.5362 32.5 43.5983M32.5 43.5983C40.3895 45.3804 49.8409 46.4178 60 46.4178C70.1591 46.4178 79.6105 45.3804 87.5 43.5983" stroke="#1C274C" stroke-width="4"/>
</svg>
