<svg width="120" height="120" viewBox="0 0 120 120" fill="none" xmlns="http://www.w3.org/2000/svg">
<path d="M20.2269 27.4583L27.4583 20.2269C34.2762 13.409 37.6852 10 41.9213 10C46.1574 10 49.5664 13.409 56.3843 20.2269L20.2269 56.3843L20.2268 56.3842C13.4089 49.5663 10 46.1574 10 41.9213C10 37.6852 13.409 34.2762 20.2268 27.4584L20.2269 27.4583Z" fill="#6FB0FF"/>
<path d="M27.4583 20.2269L26.0441 18.8126L27.4583 20.2269ZM20.2269 27.4583L18.8126 26.0441L18.7485 26.1083L18.6904 26.178L20.2269 27.4583ZM65.1209 98.4561C64.3935 97.6248 63.13 97.5406 62.2987 98.268C61.4675 98.9953 61.3832 100.259 62.1106 101.09L65.1209 98.4561ZM63.6158 99.7732L62.1107 101.09L62.1545 101.14L62.2016 101.187L63.6158 99.7732ZM20.2268 27.4584L21.6411 28.8726L21.7052 28.8084L21.7633 28.7387L20.2268 27.4584ZM20.2269 56.3843L18.7769 57.7618L20.1901 59.2494L21.6411 57.7985L20.2269 56.3843ZM20.2268 56.3842L21.6768 55.0067L21.6592 54.9881L21.641 54.97L20.2268 56.3842ZM56.3843 20.2269L57.7985 21.6411C58.1736 21.266 58.3843 20.7573 58.3843 20.2269C58.3843 19.6964 58.1736 19.1877 57.7985 18.8126L56.3843 20.2269ZM99.7731 63.6157L101.187 62.2015C100.812 61.8264 100.304 61.6157 99.7731 61.6157C99.2427 61.6157 98.734 61.8264 98.3589 62.2015L99.7731 63.6157ZM86.3065 74.254C85.5254 75.035 85.5254 76.3014 86.3065 77.0824C87.0875 77.8635 88.3539 77.8635 89.1349 77.0824L86.3065 74.254ZM26.0441 18.8126L18.8126 26.0441L21.6411 28.8726L28.8726 21.6411L26.0441 18.8126ZM93.9559 101.187L101.187 93.9559L98.3589 91.1274L91.1275 98.3589L93.9559 101.187ZM62.1106 101.09L62.1107 101.09L65.121 98.4562L65.1209 98.4561L62.1106 101.09ZM62.2016 101.187C65.5706 104.556 68.2365 107.228 70.6023 109.033C73.0141 110.874 75.3475 112 78.0787 112V108C76.5738 108 75.0847 107.422 73.0286 105.853C70.9264 104.249 68.4789 101.808 65.03 98.359L62.2016 101.187ZM91.1275 98.3589C87.6785 101.808 85.2311 104.249 83.1288 105.853C81.0728 107.422 79.5836 108 78.0787 108V112C80.8099 112 83.1433 110.874 85.5552 109.033C87.9209 107.228 90.5869 104.556 93.9559 101.187L91.1275 98.3589ZM18.6904 26.178L18.6904 26.178L21.7633 28.7387L21.7633 28.7387L18.6904 26.178ZM18.8126 26.0441C15.4437 29.4131 12.7717 32.0791 10.9667 34.4448C9.12646 36.8567 8 39.1901 8 41.9213H12C12 40.4164 12.578 38.9272 14.1468 36.8712C15.7507 34.7689 18.1921 32.3215 21.6411 28.8726L18.8126 26.0441ZM21.6769 55.0068L21.6768 55.0067L18.7768 57.7617L18.7769 57.7618L21.6769 55.0068ZM21.641 54.97C18.1921 51.5211 15.7507 49.0737 14.1467 46.9714C12.578 44.9153 12 43.4262 12 41.9213H8C8 44.6525 9.12646 46.9859 10.9667 49.3977C12.7717 51.7635 15.4436 54.4295 18.8126 57.7984L21.641 54.97ZM57.7985 18.8126C54.4295 15.4437 51.7635 12.7717 49.3978 10.9667C46.9859 9.12646 44.6525 8 41.9213 8V12C43.4262 12 44.9154 12.578 46.9715 14.1468C49.0737 15.7507 51.5211 18.1921 54.9701 21.6411L57.7985 18.8126ZM28.8726 21.6411C32.3215 18.1921 34.7689 15.7507 36.8712 14.1468C38.9272 12.578 40.4164 12 41.9213 12V8C39.1901 8 36.8567 9.12646 34.4448 10.9667C32.0791 12.7717 29.4131 15.4437 26.0441 18.8126L28.8726 21.6411ZM98.3589 65.0299C101.808 68.4789 104.249 70.9263 105.853 73.0285C107.422 75.0846 108 76.5738 108 78.0787H112C112 75.3475 110.874 73.0141 109.033 70.6022C107.228 68.2365 104.556 65.5705 101.187 62.2015L98.3589 65.0299ZM101.187 93.9559C104.556 90.5869 107.228 87.9209 109.033 85.5552C110.874 83.1433 112 80.8099 112 78.0787H108C108 79.5836 107.422 81.0727 105.853 83.1288C104.249 85.2311 101.808 87.6785 98.3589 91.1274L101.187 93.9559ZM54.9701 18.8126L18.8127 54.97L21.6411 57.7985L57.7985 21.6411L54.9701 18.8126ZM98.3589 62.2015L86.3065 74.254L89.1349 77.0824L101.187 65.0299L98.3589 62.2015Z" fill="#1C274C"/>
<path d="M80 12.5L72.5 19.5V27L76 32.5L81 39L91.5 45.5L99.5 47.5H101L105 42L108.5 36.5L110 30.5L108.5 24L105 17.5L97 11H88L80 12.5Z" fill="#6FB0FF"/>
<path d="M20.9896 108.391L25 107.054L37.3959 102.922C41.2676 101.632 43.2035 100.986 45.0249 100.118C47.1735 99.0943 49.2041 97.8393 51.0808 96.3755C52.6718 95.1346 54.1147 93.6917 57.0005 90.8059L99.6067 48.1997L104.241 43.5653C111.92 35.8868 111.92 23.4374 104.241 15.7589C96.5626 8.08037 84.1132 8.08037 76.4347 15.7589L71.8003 20.3933L29.1941 62.9995C26.3083 65.8853 24.8654 67.3282 23.6245 68.9192C22.1607 70.7959 20.9057 72.8265 19.8817 74.9751C19.0137 76.7965 18.3684 78.7324 17.0778 82.6041L12.9458 95L11.609 99.0104M20.9896 108.391L16.9792 109.728C15.0739 110.363 12.9733 109.867 11.5532 108.447C10.133 107.027 9.63714 104.926 10.2722 103.021L11.609 99.0104M20.9896 108.391L11.609 99.0104" stroke="#1C274C" stroke-width="4"/>
<path d="M71.8005 20.3931C71.8005 20.3931 72.3798 30.2412 81.0693 38.9307C89.7588 47.6202 99.6069 48.1995 99.6069 48.1995" stroke="#1C274C" stroke-width="4"/>
</svg>
