<svg width="120" height="120" viewBox="0 0 120 120" fill="none" xmlns="http://www.w3.org/2000/svg">
<path d="M86.3028 57.2008C99.3904 57.2008 110 46.6345 110 33.6004C110 20.5663 99.3904 10 86.3028 10C73.2152 10 62.6056 20.5663 62.6056 33.6004C62.6056 39.6377 65.3611 44.0285 65.3611 44.0285L36.704 72.5685C35.4181 73.8491 33.6179 77.1788 36.704 80.2523L40.0106 83.5454C41.2965 84.6431 44.5295 86.1798 47.1747 83.5454L51.0324 79.7035C54.8901 83.5454 59.2989 81.35 60.9522 79.1546C63.7077 75.3127 60.4011 71.4708 60.4011 71.4708L61.5033 70.3731C66.7938 75.642 71.423 72.5685 73.0763 70.3731C75.8318 66.5311 73.0763 62.6892 73.0763 62.6892C71.9741 60.4938 69.7699 60.4938 72.5252 57.7497L75.8319 54.4565C78.4772 56.6519 83.9147 57.2008 86.3028 57.2008Z" stroke="#1C274C" stroke-width="4" stroke-linejoin="round"/>
<path d="M86.3024 41.8328C90.8678 41.8328 94.5688 38.1469 94.5688 33.6001C94.5688 29.0533 90.8678 25.3674 86.3024 25.3674C81.7369 25.3674 78.0359 29.0533 78.0359 33.6001C78.0359 38.1469 81.7369 41.8328 86.3024 41.8328Z" fill="#6FB0FF" stroke="#1C274C" stroke-width="4"/>
<path d="M110 74.9648C109.681 88.9351 108.346 97.095 102.771 102.67C95.4411 110 83.6442 110 60.0503 110C36.4563 110 24.6594 110 17.3297 102.67C10 95.3406 10 83.5437 10 59.9497C10 36.3558 10 24.5589 17.3297 17.2292C22.905 11.6539 31.0649 10.3194 45.0352 10" stroke="#6FB0FF" stroke-width="4" stroke-linecap="round"/>
</svg>
