<svg width="120" height="120" viewBox="0 0 120 120" fill="none" xmlns="http://www.w3.org/2000/svg">
<path d="M10 26.2866C10 17.2918 17.835 10 27.5 10C37.165 10 45 17.2918 45 26.2866C45 35.2109 39.4146 45.6248 30.7002 49.3489C28.6687 50.217 26.3313 50.217 24.2998 49.3489C15.5854 45.6248 10 35.2109 10 26.2866Z" fill="#6FB0FF" stroke="#1C274C" stroke-width="4"/>
<path d="M75 86.2866C75 77.2918 82.835 70 92.5 70C102.165 70 110 77.2918 110 86.2866C110 95.2109 104.415 105.625 95.7002 109.349C93.6687 110.217 91.3313 110.217 89.2998 109.349C80.5854 105.625 75 95.2109 75 86.2866Z" stroke="#1C274C" stroke-width="4"/>
<path d="M60.0001 23C58.8955 23 58.0001 23.8954 58.0001 25C58.0001 26.1046 58.8955 27 60.0001 27V23ZM60.0001 95L61.4143 96.4142C62.1954 95.6332 62.1954 94.3668 61.4143 93.5858L60.0001 95ZM86.0283 43.4366L87.102 45.1239L86.0283 43.4366ZM33.972 76.5634L35.0457 78.2507H35.0457L33.972 76.5634ZM53.9143 86.0858C53.1333 85.3047 51.8669 85.3047 51.0859 86.0858C50.3048 86.8668 50.3048 88.1332 51.0859 88.9142L53.9143 86.0858ZM51.0859 101.086C50.3048 101.867 50.3048 103.133 51.0859 103.914C51.8669 104.695 53.1333 104.695 53.9143 103.914L51.0859 101.086ZM80.6595 23H60.0001V27H80.6595V23ZM60.0001 93H39.3407V97H60.0001V93ZM84.9545 41.7493L32.8982 74.876L35.0457 78.2507L87.102 45.1239L84.9545 41.7493ZM61.4143 93.5858L53.9143 86.0858L51.0859 88.9142L58.5859 96.4142L61.4143 93.5858ZM58.5859 93.5858L51.0859 101.086L53.9143 103.914L61.4143 96.4142L58.5859 93.5858ZM39.3407 93C31.3371 93 28.2934 82.5476 35.0457 78.2507L32.8982 74.876C22.7698 81.3214 27.3353 97 39.3407 97V93ZM80.6595 27C88.6631 27 91.7068 37.4524 84.9545 41.7493L87.102 45.1239C97.2305 38.6785 92.6649 23 80.6595 23V27Z" fill="#6FB0FF"/>
<path d="M92.5 87.5H92.545" stroke="#1C274C" stroke-width="4" stroke-linecap="round" stroke-linejoin="round"/>
<path d="M27.4536 27.5H27.4986" stroke="#1C274C" stroke-width="4" stroke-linecap="round" stroke-linejoin="round"/>
</svg>
