<svg width="120" height="120" viewBox="0 0 120 120" fill="none" xmlns="http://www.w3.org/2000/svg">
<path d="M20 55H80C89.4281 55 94.1421 55 97.0711 57.9289C100 60.8579 100 65.5719 100 75V80C100 94.1421 100 101.213 95.6066 105.607C91.2132 110 84.1421 110 70 110H50C35.8579 110 28.7868 110 24.3934 105.607C20 101.213 20 94.1421 20 80V55Z" stroke="#1C274C" stroke-width="4"/>
<path d="M20.0076 54.9983C17.5887 45.9706 16.3792 41.4567 17.4194 37.5745C18.1009 35.0311 19.4399 32.712 21.3017 30.8501C24.1438 28.0081 28.6576 26.7986 37.6853 24.3797L72.7001 14.9975C76.0663 14.0955 77.7494 13.6445 79.2236 13.5479C85.2775 13.1511 90.9744 16.4402 93.6577 21.8815C94.3111 23.2065 94.7621 24.8896 95.6641 28.2557C95.9648 29.3778 96.1151 29.9388 96.1473 30.4302C96.2795 32.4482 95.1832 34.3471 93.3694 35.2416C92.9277 35.4594 92.3667 35.6097 91.2447 35.9104L20.0076 54.9983Z" fill="#6FB0FF" stroke="#1C274C" stroke-width="4"/>
<path d="M73.5018 14.708L70.313 41.4443" stroke="#1C274C" stroke-width="4" stroke-linecap="round"/>
<path d="M42.1092 23.1186L38.9204 49.8549" stroke="#1C274C" stroke-width="4" stroke-linecap="round"/>
<path d="M70 82.5C70 80.3888 68.014 78.965 64.0419 76.1174C60.0156 73.2308 58.0024 71.7876 56.5012 72.8473C55 73.907 55 76.7713 55 82.5C55 88.2287 55 91.093 56.5012 92.1527C58.0024 93.2124 60.0156 91.7692 64.0419 88.8826C68.014 86.035 70 84.6112 70 82.5Z" fill="#6FB0FF"/>
</svg>
