<svg width="120" height="120" viewBox="0 0 120 120" fill="none" xmlns="http://www.w3.org/2000/svg">
<path d="M84.8926 107.68C77.5626 109.156 69.0629 110 60 110C32.3858 110 10 102.165 10 92.5C10 82.835 32.3858 75 60 75C87.6142 75 110 82.835 110 92.5C110 95.2381 108.203 97.8294 105 100.137" stroke="#00467B" stroke-width="4" stroke-linecap="round"/>
<path d="M60 90V10" stroke="#6FB0FF" stroke-width="4" stroke-linecap="round"/>
<path d="M59.9993 17.5L87.1111 31.0557C94.9167 34.9584 98.8195 36.9098 98.8195 40C98.8195 43.0902 94.9167 45.0416 87.1111 48.9443L59.9993 62.5" stroke="#6FB0FF" stroke-width="4" stroke-linecap="round"/>
<path d="M60.6001 60.5999V20.3999L73.8001 24.5999L97.2001 37.1999L98.4001 40.7999L90.6001 46.1999L60.6001 60.5999Z" fill="#6FB0FF"/>
</svg>
