<svg width="120" height="120" viewBox="0 0 120 120" fill="none" xmlns="http://www.w3.org/2000/svg">
<path d="M108.5 60H9V79L11 93.5L19 105L35.5 110H63H78.5L95.5 107.5L106.5 97.5L108.5 83.5V60Z" fill="#6FB0FF"/>
<path d="M110 60H10" stroke="#1C274C" stroke-width="4" stroke-linecap="round"/>
<path d="M60 10V110" stroke="#6FB0FF" stroke-width="4" stroke-linecap="round"/>
<path d="M65 60C65 71.0457 73.9543 80 85 80" stroke="#1C274C" stroke-width="4" stroke-linecap="round"/>
<path d="M55 60C55 71.0457 46.0457 80 35 80" stroke="#1C274C" stroke-width="4" stroke-linecap="round"/>
<path d="M60 50.1754C60 42.7259 65.0699 36.2325 72.2969 34.4257C80.3156 32.4211 87.5789 39.6844 85.5742 47.703C83.7675 54.93 77.274 60 69.8246 60H60V50.1754Z" stroke="#1C274C" stroke-width="4"/>
<path d="M60 50.1754C60 42.7259 54.93 36.2325 47.703 34.4257C39.6844 32.4211 32.4211 39.6844 34.4257 47.703C36.2325 54.93 42.7259 60 50.1754 60H60V50.1754Z" stroke="#1C274C" stroke-width="4"/>
<path d="M10 60C10 36.4298 10 24.6447 17.3223 17.3223C24.6447 10 36.4298 10 60 10C83.5702 10 95.3553 10 102.678 17.3223C110 24.6447 110 36.4298 110 60C110 83.5702 110 95.3553 102.678 102.678C95.3553 110 83.5702 110 60 110C36.4298 110 24.6447 110 17.3223 102.678C10 95.3553 10 83.5702 10 60Z" stroke="#1C274C" stroke-width="4"/>
</svg>
