<svg width="120" height="120" viewBox="0 0 120 120" fill="none" xmlns="http://www.w3.org/2000/svg">
<path d="M62.7484 17.1974C60.5901 12.5452 59.511 10.2191 57.6067 10.0226C55.7023 9.82608 54.234 11.8893 51.2973 16.0157L50.5375 17.0832C49.703 18.2558 49.2857 18.8421 48.6849 19.1954C48.084 19.5486 47.3676 19.6288 45.9348 19.7893L44.6303 19.9353C39.5881 20.4999 37.0669 20.7821 36.3173 22.539C35.5677 24.2958 37.0859 26.3637 40.1225 30.4995L40.9081 31.5695C41.771 32.7447 42.2025 33.3324 42.359 34.0204C42.5155 34.7085 42.3794 35.4191 42.1071 36.8402L41.8593 38.134C40.9013 43.1351 40.4223 45.6357 41.8633 46.918C43.3043 48.2003 45.711 47.4151 50.5244 45.8448L51.7697 45.4385C53.1375 44.9923 53.8214 44.7691 54.519 44.8411C55.2166 44.9131 55.8489 45.2721 57.1135 45.99L58.2648 46.6435C62.7149 49.1699 64.94 50.433 66.5802 49.4687C68.2205 48.5044 68.1896 45.9512 68.1279 40.8449L68.1119 39.5238C68.0944 38.0727 68.0856 37.3472 68.3602 36.7037C68.6348 36.0601 69.1617 35.5714 70.2155 34.5939L71.1749 33.704C74.8833 30.2642 76.7375 28.5444 76.3102 26.6661C75.8829 24.7878 73.4571 23.995 68.6056 22.4095L67.3504 21.9993C65.9717 21.5487 65.2824 21.3234 64.7545 20.8537C64.2267 20.384 63.92 19.723 63.3067 18.401L62.7484 17.1974Z" fill="#6FB0FF" stroke="#1C274C" stroke-width="4"/>
<path d="M54.9991 110C53.3325 99.1667 50.9991 74 54.9991 60" stroke="#1C274C" stroke-width="4" stroke-linecap="round"/>
<path d="M72.5 110C72.5 93.3333 80 65 110 47.5" stroke="#6FB0FF" stroke-width="4" stroke-linecap="round"/>
<path d="M25.0001 66.3398C25.0001 66.3398 28.2482 70.079 31.113 70.8466C33.9779 71.6142 38.6604 70.0001 38.6604 70.0001C38.6604 70.0001 34.9212 73.2482 34.1536 76.113C33.3859 78.9779 35.0001 83.6604 35.0001 83.6604C35.0001 83.6604 31.752 79.9212 28.8872 79.1536C26.0223 78.3859 21.3398 80.0001 21.3398 80.0001C21.3398 80.0001 25.079 76.752 25.8466 73.8872C26.6142 71.0223 25.0001 66.3398 25.0001 66.3398Z" fill="#6FB0FF" stroke="#1C274C" stroke-width="4" stroke-linejoin="round"/>
</svg>
