<svg width="220" height="36" viewBox="0 0 220 36" fill="none" xmlns="http://www.w3.org/2000/svg">
<path fill-rule="evenodd" clip-rule="evenodd" d="M213.656 0.15494C211.231 0.861651 209.62 3.50988 210.029 6.11683C210.203 7.22826 210.621 8.10917 211.366 8.93401C213.166 10.9285 216.035 11.1442 218.149 9.44445C218.787 8.93211 219.511 7.80837 219.766 6.93808C220.643 3.9393 218.976 0.799132 216.14 0.108528C215.476 -0.0532649 214.296 -0.0311941 213.656 0.15494ZM216.17 1.29513C218.778 2.16423 219.794 5.30536 218.239 7.69037C216.875 9.78378 214.077 10.0935 212.286 8.34948C209.997 6.12101 210.903 2.24417 213.951 1.22318C214.615 1.00077 215.359 1.02488 216.17 1.29513ZM212.765 5.16087V7.97626H213.443H214.12V6.90241V5.82856H214.444C214.924 5.82856 215.261 6.17827 215.695 7.12636L216.084 7.97626H216.796C217.188 7.97626 217.508 7.94833 217.508 7.91421C217.508 7.68202 216.45 5.69147 216.246 5.54077C215.997 5.35666 215.997 5.35141 216.215 5.17745C216.336 5.08032 216.465 4.99919 216.502 4.99716C216.642 4.98917 216.831 4.3649 216.831 3.90792C216.831 3.29714 216.595 2.81736 216.19 2.60665C215.981 2.49807 215.333 2.42411 214.318 2.39297L212.765 2.34547V5.16087ZM215.257 3.56573C215.407 3.6508 215.476 3.81593 215.476 4.09585C215.476 4.59996 215.148 4.87403 214.547 4.87403H214.12V4.15813V3.44223H214.58C214.832 3.44223 215.137 3.49784 215.257 3.56573ZM99.2114 5.01053C93.1908 5.71199 88.3823 10.0168 86.9054 16.0272C85.5483 21.5506 86.9943 27.648 90.572 31.4884C93.2077 34.3176 96.3945 35.7763 100.379 35.9772C104.659 36.193 108.732 34.8652 111.134 32.4705L111.916 31.6914V25.74V19.7886H106.778H101.639V21.9363V24.084H104.632H107.625V26.9469V29.8096L107.145 30.1832C105.091 31.782 100.833 32.3117 98.0566 31.3137C94.532 30.0468 92.1746 27.0929 91.3347 22.8908C91.0661 21.5468 91.0138 18.8181 91.2352 17.7005C92.2762 12.4467 95.824 9.25557 100.757 9.13649L101.864 9.10976L101.865 6.99189L101.865 4.87403L100.99 4.88966C100.509 4.89825 99.7083 4.95266 99.2114 5.01053ZM172.279 5.40498C166.915 6.88594 163.2 11.1982 162.099 17.2233C161.796 18.8789 161.824 22.0638 162.157 23.8453C163.323 30.0824 167.408 34.4447 173.182 35.6187C173.91 35.7667 174.76 35.8247 176.175 35.8232C178.48 35.8207 179.758 35.5875 181.696 34.8159C182.778 34.3853 183.967 33.7107 183.968 33.5274C183.968 33.485 183.686 32.5905 183.34 31.5396L182.713 29.6289L181.505 30.2561C176.284 32.9676 170.837 31.7024 168.247 27.1765C167.675 26.1774 167.163 24.7476 166.883 23.3681C166.582 21.8839 166.567 19.1072 166.853 17.7005C167.571 14.1633 169.235 11.6429 171.771 10.2537C172.236 9.99832 172.834 9.72209 173.098 9.63952L173.578 9.48954V7.30117C173.578 5.6268 173.544 5.11409 173.436 5.1185C173.359 5.12172 172.838 5.2507 172.279 5.40498ZM0 20.4448V35.5384H6.8889H13.7778V33.51V31.4816H9.03462H4.29144V26.6493V21.817H7.62296H10.9545V19.7886V17.7602H7.62296H4.29144V13.5841V9.40805H6.0419H7.79236V7.37967V5.35129H3.89618H0V20.4448ZM18.1822 15.3664V25.3965H20.4021H22.622L22.5559 20.7491L22.4899 16.1017L25.7286 19.8863C27.5098 21.9678 31.2496 26.341 34.0392 29.6046C38.4674 34.7854 39.1517 35.5384 39.4317 35.5384H39.7523V20.4448V5.35129H37.6017H35.451L35.4842 15.1923L35.5173 25.0333L35.2739 24.7674C35.1399 24.6213 31.3901 20.2062 26.941 14.9563C20.0475 6.82211 18.8021 5.40546 18.5168 5.37361L18.1822 5.33615V15.3664ZM45.8507 20.4448V35.5384H49.4645H53.0784V33.51V31.4816H51.6102H50.1421V26.6493V21.817H53.4172H56.6922V19.7886V17.7602H53.4172H50.1421V13.5841V9.40805H54.2642H58.3862V7.37967V5.35129H52.1184H45.8507V20.4448ZM64.0328 7.23841V9.14818L68.4654 9.19842C72.5341 9.24448 72.969 9.26917 73.7625 9.49945C75.3335 9.95548 76.4797 10.7673 77.0796 11.8488C77.4235 12.4686 77.6943 13.6804 77.6943 14.5983C77.6943 16.6513 76.6474 18.7733 75.2335 19.5865C74.1482 20.2105 73.1279 20.4063 70.6112 20.4735L68.3243 20.5345V17.2383V13.9421H66.1786H64.0328V24.7402V35.5384H66.1786H68.3243V29.8708V24.2033H70.4476H72.571L75.4261 29.8708L78.281 35.5384H80.8089H83.3368L82.3037 33.6591C81.7354 32.6256 80.2136 29.8507 78.922 27.4928L76.5734 23.2058L77.3737 22.747C79.5689 21.4886 80.9384 19.7125 81.5593 17.3187C81.919 15.932 81.9172 13.077 81.5557 11.7389C81.1713 10.3162 80.6999 9.4664 79.7332 8.45352C78.7616 7.43563 77.6844 6.77487 76.0579 6.19928C74.1148 5.51154 73.541 5.44925 68.5784 5.38625L64.0328 5.32863V7.23841ZM116.772 20.4448V35.5384H123.661H130.55V33.51V31.4816H125.807H121.064V26.6493V21.817H124.339H127.614V19.7886V17.7602H124.339H121.064V13.5841V9.40805H122.532H124V7.37967V5.35129H120.386H116.772V20.4448ZM134.955 20.4448V35.5384H139.246H143.537V33.51V31.4816H141.448H139.359V18.4164V5.35129H137.157H134.955V20.4448ZM152.233 20.4448V35.5384H154.435H156.638V20.4448V5.35129H154.435H152.233V20.4448ZM198.354 5.73167C198.159 6.12816 185.019 35.1072 184.906 35.3916C184.857 35.5119 185.351 35.5364 187.308 35.5109L189.771 35.4787L190.775 33.0327C191.328 31.6874 193.168 27.3115 194.864 23.3084C196.56 19.3054 198.116 15.6141 198.322 15.1054C198.528 14.5968 198.728 14.1807 198.767 14.1807C198.806 14.1807 199.135 14.919 199.498 15.8213C199.862 16.7237 200.738 18.8311 201.445 20.5045C202.152 22.1779 202.758 23.6142 202.791 23.6962C202.838 23.8124 202.399 23.8453 200.806 23.8453H198.762V25.993V28.1407H201.682H204.603L204.923 28.8865C205.099 29.2967 205.79 30.9477 206.458 32.5554L207.674 35.4787L210.213 35.5108L212.752 35.5428L211.404 32.5875C210.663 30.9621 207.576 24.1824 204.544 17.5216C198.603 4.46871 198.795 4.83549 198.354 5.73167Z" fill="#151515"/>
</svg>
