<svg width="100" height="100" viewBox="0 0 100 100" fill="none" xmlns="http://www.w3.org/2000/svg">
<path d="M32.6795 84.1578C41.1325 89.1637 45.359 91.6666 50 91.6666C54.641 91.6666 58.8675 89.1637 67.3205 84.1578L70.1795 82.4647C78.6325 77.4588 82.859 74.9559 85.1795 70.8333C87.5 66.7106 87.5 61.7048 87.5 51.693M86.7279 33.3333C86.3857 31.7815 85.892 30.4324 85.1795 29.1666C82.859 25.044 78.6325 22.541 70.1795 17.5352L67.3205 15.8421C58.8675 10.8362 54.641 8.33325 50 8.33325C45.359 8.33325 41.1325 10.8362 32.6795 15.8421L29.8205 17.5352C21.3675 22.541 17.141 25.044 14.8205 29.1666C12.5 33.2892 12.5 38.2951 12.5 48.3068V51.693C12.5 61.7048 12.5 66.7106 14.8205 70.8333C15.7636 72.5088 17.0215 73.9167 18.75 75.3339" stroke="#1C274C" stroke-width="4" stroke-linecap="round"/>
<circle cx="50" cy="50" r="12.5" fill="#BEDDEF" stroke="#BEDDEF" stroke-width="4"/>
</svg>
