<svg width="100" height="100" viewBox="0 0 100 100" fill="none" xmlns="http://www.w3.org/2000/svg">
<path d="M54.1667 37.1761L33.0094 16.0189C28.3176 11.327 20.7107 11.327 16.0189 16.0189C11.327 20.7107 11.327 28.3176 16.0189 33.0094L66.9906 83.9811C71.6824 88.6729 79.2893 88.6729 83.9811 83.9811C88.6729 79.2893 88.6729 71.6824 83.9811 66.9906L71.1572 54.1667" stroke="#1C274C" stroke-width="4" stroke-linecap="round"/>
<path d="M25 41.6667L41.6667 25.0001" stroke="#1C274C" stroke-width="3" stroke-linecap="round"/>
<path d="M67.0835 9.61321C67.7541 7.9066 70.1604 7.9066 70.831 9.61321L72.6243 14.1769C72.829 14.6979 73.24 15.1104 73.7591 15.3159L78.3059 17.1158C80.0063 17.7888 80.0063 20.2041 78.3059 20.8772L73.7591 22.6771C73.24 22.8826 72.829 23.295 72.6243 23.816L70.831 28.3797C70.1604 30.0863 67.7541 30.0863 67.0835 28.3797L65.2902 23.816C65.0855 23.295 64.6746 22.8826 64.1554 22.6771L59.6086 20.8772C57.9083 20.2041 57.9082 17.7888 59.6086 17.1158L64.1554 15.3159C64.6746 15.1104 65.0855 14.6979 65.2902 14.1769L67.0835 9.61321Z" fill="#BEDDEF" stroke="#BEDDEF" stroke-width="4"/>
<path d="M83.1966 38.0395C83.8672 36.3329 86.2736 36.3329 86.9442 38.0395L87.598 39.7034C87.8027 40.2245 88.2136 40.6369 88.7328 40.8424L90.3906 41.4986C92.0909 42.1717 92.0909 44.587 90.3906 45.2601L88.7328 45.9163C88.2136 46.1218 87.8027 46.5342 87.598 47.0553L86.9442 48.7192C86.2736 50.4258 83.8672 50.4258 83.1966 48.7192L82.5428 47.0553C82.338 46.5342 81.9271 46.1218 81.408 45.9163L79.7502 45.2601C78.0499 44.587 78.0499 42.1717 79.7502 41.4986L81.408 40.8424C81.9271 40.6369 82.338 40.2245 82.5428 39.7034L83.1966 38.0395Z" fill="#BEDDEF" stroke="#BEDDEF" stroke-width="4"/>
<path d="M21.3883 63.78C22.0589 62.0733 24.4653 62.0733 25.1359 63.78L25.7897 65.4439C25.9945 65.9649 26.4054 66.3774 26.9245 66.5829L28.5823 67.2391C30.2826 67.9122 30.2826 70.3275 28.5823 71.0005L26.9245 71.6568C26.4054 71.8623 25.9945 72.2747 25.7897 72.7958L25.1359 74.4597C24.4653 76.1663 22.0589 76.1663 21.3883 74.4597L20.7345 72.7958C20.5298 72.2747 20.1188 71.8623 19.5997 71.6568L17.9419 71.0005C16.2416 70.3275 16.2416 67.9122 17.9419 67.2391L19.5997 66.5829C20.1188 66.3774 20.5298 65.9649 20.7345 65.4439L21.3883 63.78Z" fill="#BEDDEF" stroke="#BEDDEF" stroke-width="4"/>
</svg>
