<svg width="100" height="100" viewBox="0 0 100 100" fill="none" xmlns="http://www.w3.org/2000/svg">
<path d="M70.7439 89.7337C64.6355 90.9634 57.5524 91.6667 50 91.6667C26.9881 91.6667 8.33334 85.1375 8.33334 77.0833C8.33334 69.0292 26.9881 62.5 50 62.5C73.0119 62.5 91.6667 69.0292 91.6667 77.0833C91.6667 79.3651 90.1694 81.5245 87.5 83.4477" stroke="#00467B" stroke-width="4" stroke-linecap="round"/>
<path d="M50 74.9999V8.33325" stroke="#BEDDEF" stroke-width="4" stroke-linecap="round"/>
<path d="M49.9995 14.5833L72.5926 25.8797C79.0973 29.132 82.3496 30.7581 82.3496 33.3333C82.3496 35.9084 79.0973 37.5346 72.5926 40.7868L49.9995 52.0833" stroke="#BEDDEF" stroke-width="4" stroke-linecap="round"/>
<path d="M50.5 50.5V17L61.5 20.5L81 31L82 34L75.5 38.5L50.5 50.5Z" fill="#BEDDEF"/>
</svg>
