<svg width="100" height="100" viewBox="0 0 100 100" fill="none" xmlns="http://www.w3.org/2000/svg">
<path d="M30 64L33 83L51 77.5L50.5 76C49.8333 73.6667 48.4 68.8 48 68C47.6 67.2 47.8333 61.3333 48 58.5C48.5 55.3333 49.5 48.9 49.5 48.5C49.5 48.1 50.5 46 51 45L45 37L36 30L33.5 30.5L31 45.5L30 64Z" fill="#BEDDEF"/>
<path d="M55.4405 76.2395L34.3218 83.2791C22.7993 87.1199 17.038 89.0403 13.9968 85.9992C10.9556 82.958 12.8761 77.1967 16.7169 65.6742L23.7565 44.5554C26.9482 34.9803 28.5441 30.1927 32.3202 29.3013C36.0962 28.4099 39.6647 31.9783 46.8016 39.1152L60.8807 53.1944C68.0177 60.3313 71.5861 63.8998 70.6947 67.6758" stroke="#00467B" stroke-width="4" stroke-linecap="round"/>
<path d="M60.4554 41.6919L61.0554 38.6922C61.6611 35.6634 63.8433 33.1915 66.7735 32.2147C69.7038 31.238 71.886 28.766 72.4917 25.7373L73.0916 22.7375" stroke="#00467B" stroke-width="4" stroke-linecap="round"/>
<path d="M73.2042 51.0565L74.0911 51.5685C76.829 53.1493 80.2714 52.8007 82.6369 50.7031C84.779 48.8036 87.8295 48.3219 90.4527 49.4688L91.6672 49.9999" stroke="#00467B" stroke-width="4" stroke-linecap="round"/>
<path d="M43.8965 12.5C42.4903 14.8002 42.8427 17.7643 44.7491 19.6707L45.1569 20.0786C46.7951 21.7167 47.3991 24.1233 46.7288 26.3409" stroke="#00467B" stroke-width="4" stroke-linecap="round"/>
<path d="M56.504 18.3178C57.3418 17.4801 57.7606 17.0612 58.245 16.9077C58.6546 16.7778 59.0944 16.7778 59.5041 16.9077C59.9884 17.0612 60.4072 17.4801 61.245 18.3178C62.0827 19.1556 62.5016 19.5744 62.6551 20.0588C62.785 20.4684 62.785 20.9082 62.6551 21.3179C62.5016 21.8022 62.0827 22.2211 61.245 23.0588C60.4072 23.8965 59.9884 24.3154 59.5041 24.4689C59.0944 24.5988 58.6546 24.5988 58.245 24.4689C57.7606 24.3154 57.3418 23.8965 56.504 23.0588C55.6663 22.2211 55.2474 21.8022 55.0939 21.3179C54.964 20.9082 54.964 20.4684 55.0939 20.0588C55.2474 19.5744 55.6663 19.1556 56.504 18.3178Z" fill="#BEDDEF"/>
<path d="M81.1176 31.1177C82.1401 30.0952 82.6513 29.584 83.228 29.3618C83.9029 29.1017 84.6504 29.1017 85.3253 29.3618C85.902 29.584 86.4132 30.0952 87.4357 31.1177C88.4582 32.1401 88.9694 32.6514 89.1916 33.2281C89.4517 33.903 89.4517 34.6505 89.1916 35.3254C88.9694 35.9021 88.4582 36.4133 87.4357 37.4358C86.4132 38.4583 85.902 38.9695 85.3253 39.1917C84.6504 39.4517 83.9029 39.4517 83.228 39.1917C82.6513 38.9695 82.1401 38.4583 81.1176 37.4358C80.0951 36.4133 79.5839 35.9021 79.3617 35.3254C79.1016 34.6505 79.1016 33.903 79.3617 33.2281C79.5839 32.6514 80.0951 32.1401 81.1176 31.1177Z" fill="#BEDDEF"/>
<path d="M28.864 16.42C29.7368 15.5472 31.1519 15.5472 32.0246 16.42C32.8974 17.2928 32.8974 18.7078 32.0246 19.5806C31.1519 20.4534 29.7368 20.4534 28.864 19.5806C27.9912 18.7078 27.9912 17.2928 28.864 16.42Z" fill="#BEDDEF"/>
<path d="M79.4093 63.8057C80.282 62.9329 81.6971 62.9329 82.5699 63.8057C83.4427 64.6785 83.4427 66.0936 82.5699 66.9664C81.6971 67.8391 80.282 67.8391 79.4093 66.9664C78.5365 66.0936 78.5365 64.6785 79.4093 63.8057Z" fill="#BEDDEF"/>
<path d="M72.9166 40.5894C73.7894 39.7166 75.2045 39.7166 76.0773 40.5894C76.9501 41.4621 76.9501 42.8772 76.0773 43.75C75.2045 44.6228 73.7894 44.6228 72.9166 43.75C72.0439 42.8772 72.0439 41.4621 72.9166 40.5894Z" fill="#BEDDEF"/>
</svg>
