<?xml version="1.0"?>
<svg xmlns="http://www.w3.org/2000/svg" xmlns:xlink="http://www.w3.org/1999/xlink" version="1.1" xml:space="preserve">
  <defs>

    <symbol id="loader" width="100%" height="100%" viewBox="22 22 44 44">
      <circle cx="44" cy="44" r="20.2" fill="none" stroke="currentColor" stroke-width="4"></circle>
    </symbol>

    <symbol id="burger" width="100%" height="100%" viewBox="0 0 32 32">
      <path d="M5.33334 8H26.6667" fill="var(--color-none)" stroke="currentColor" stroke-width="3" stroke-linecap="round" stroke-linejoin="round"/>
      <path d="M5.33334 16H26.6667" fill="var(--color-none)" stroke="currentColor" stroke-width="3" stroke-linecap="round" stroke-linejoin="round"/>
      <path d="M5.33334 24H26.6667" fill="var(--color-none)" stroke="currentColor" stroke-width="3" stroke-linecap="round" stroke-linejoin="round"/>
    </symbol>

    <symbol id="close" width="100%" height="100%" viewBox="0 0 30 30">
      <path fill-rule="evenodd" clip-rule="evenodd" d="M1.30292 1.30304C2.24018 0.365783 3.75977 0.365783 4.69703 1.30304L15 11.606L25.3029 1.30304C26.2402 0.365783 27.7598 0.365783 28.697 1.30304C29.6343 2.2403 29.6343 3.7599 28.697 4.69715L18.3941 15.0001L28.697 25.303C29.6343 26.2403 29.6343 27.7599 28.697 28.6972C27.7598 29.6344 26.2402 29.6344 25.3029 28.6972L15 18.3942L4.69703 28.6972C3.75977 29.6344 2.24018 29.6344 1.30292 28.6972C0.365661 27.7599 0.365661 26.2403 1.30292 25.303L11.6059 15.0001L1.30292 4.69715C0.365661 3.7599 0.365661 2.2403 1.30292 1.30304Z" fill="currentColor"/>
    </symbol>

    <symbol id="success" width="100%" height="100%" viewBox="0 0 68 68">
      <path fill-rule="evenodd" clip-rule="evenodd" d="M34 68C52.7777 68 68 52.7777 68 34C68 15.2223 52.7777 0 34 0C15.2223 0 0 15.2223 0 34C0 52.7777 15.2223 68 34 68ZM49.7552 28.5052C51.4149 26.8455 51.4149 24.1545 49.7552 22.4948C48.0955 20.8351 45.4045 20.8351 43.7448 22.4948L29.75 36.4896L24.2552 30.9948C22.5955 29.3351 19.9045 29.3351 18.2448 30.9948C16.5851 32.6545 16.5851 35.3455 18.2448 37.0052L26.7448 45.5052C28.4045 47.1649 31.0955 47.1649 32.7552 45.5052L49.7552 28.5052Z" fill="currentColor"/>
    </symbol>

    <symbol id="arrow-left" width="100%" height="100%" viewBox="0 0 11 18">
      <path d="M3.76777 9L9.88388 2.88388C10.372 2.39573 10.372 1.60427 9.88388 1.11612C9.39573 0.627961 8.60427 0.627961 8.11612 1.11612L1.11612 8.11612C0.62796 8.60427 0.62796 9.39573 1.11612 9.88388L8.11612 16.8839C8.60427 17.372 9.39573 17.372 9.88388 16.8839C10.372 16.3957 10.372 15.6043 9.88388 15.1161L3.76777 9Z" fill="currentColor"/>
    </symbol>

    <symbol id="arrow-right" width="100%" height="100%" viewBox="0 0 11 18">
      <path d="M7.23223 9L1.11612 2.88388C0.627961 2.39573 0.627961 1.60427 1.11612 1.11612C1.60427 0.627961 2.39573 0.627961 2.88388 1.11612L9.88388 8.11612C10.372 8.60427 10.372 9.39573 9.88388 9.88388L2.88388 16.8839C2.39573 17.372 1.60427 17.372 1.11612 16.8839C0.627961 16.3957 0.627961 15.6043 1.11612 15.1161L7.23223 9Z" fill="currentColor"/>
    </symbol>

    <symbol id="wa" width="100%" height="100%" viewBox="0 0 14 14">
      <path fill-rule="evenodd" clip-rule="evenodd" d="M11.9601 2.03457C10.6441 0.723268 8.89389 0.000800961 7.02921 0C3.18705 0 0.0599585 3.11193 0.0584159 6.93692C0.0579464 8.15959 0.378864 9.35302 0.98891 10.4052L0 14L3.69528 13.0353C4.71344 13.588 5.85975 13.8793 7.02639 13.8797H7.02927C10.871 13.8797 13.9984 10.7674 14 6.94233C14.0007 5.08877 13.2762 3.34581 11.9601 2.03457ZM7.02927 12.7081H7.02693C5.98731 12.7077 4.96762 12.4297 4.0781 11.9044L3.86651 11.7795L1.67367 12.3519L2.25897 10.2241L2.12121 10.0059C1.54128 9.0879 1.23491 8.02683 1.23538 6.93726C1.23666 3.75811 3.83572 1.17167 7.03162 1.17167C8.57907 1.17221 10.0338 1.77273 11.1277 2.8627C12.2216 3.95261 12.8236 5.40128 12.823 6.942C12.8217 10.1214 10.2226 12.7081 7.02927 12.7081ZM10.2073 8.38953C10.0331 8.30283 9.17684 7.88346 9.01716 7.82559C8.85753 7.76786 8.74137 7.73889 8.62528 7.91243C8.50918 8.08597 8.17532 8.47637 8.07372 8.59211C7.97211 8.70772 7.8705 8.72227 7.6964 8.63543C7.52215 8.54873 6.961 8.36564 6.29569 7.77506C5.77793 7.31545 5.42837 6.74783 5.32677 6.57422C5.22516 6.40068 5.3159 6.3069 5.40316 6.22046C5.48149 6.14277 5.57733 6.01795 5.66445 5.91677C5.75157 5.81558 5.78055 5.74323 5.83863 5.62755C5.89671 5.51188 5.86767 5.41063 5.82407 5.32392C5.78055 5.23708 5.4322 4.38386 5.28706 4.03678C5.14568 3.69884 5.00209 3.74456 4.89519 3.73922C4.79371 3.73421 4.67749 3.73308 4.56133 3.73308C4.44523 3.73308 4.25657 3.77647 4.09688 3.95001C3.93726 4.12355 3.48731 4.54292 3.48731 5.39614C3.48731 6.24937 4.11137 7.07355 4.19849 7.18929C4.28554 7.30497 5.4267 9.0558 7.17387 9.8067C7.58936 9.98532 7.91383 10.0919 8.16681 10.1719C8.5841 10.3038 8.96377 10.2851 9.26383 10.2406C9.5985 10.1908 10.2943 9.82119 10.4395 9.4163C10.5846 9.01135 10.5846 8.66426 10.5411 8.59198C10.4975 8.51976 10.3814 8.47637 10.2073 8.38953Z" fill="currentColor"/>
    </symbol>

    <symbol id="tg" width="100%" height="100%" viewBox="0 0 15 14">
      <path fill-rule="evenodd" clip-rule="evenodd" d="M1.14346 6.38103C5.06247 4.60331 7.67141 3.42206 8.98148 2.84898C12.7101 1.2233 13.4939 0.942604 13.9978 0.930908C14.1098 0.930908 14.3561 0.954299 14.5241 1.09465C14.6584 1.2116 14.692 1.36364 14.7144 1.4806C14.7368 1.59755 14.7592 1.84316 14.7368 2.03029C14.5353 4.25244 13.6619 9.64408 13.214 12.1235C13.0237 13.1761 12.6541 13.527 12.2958 13.5621C11.512 13.6323 10.9186 13.0241 10.1684 12.5095C8.98147 11.7025 8.32084 11.1996 7.16753 10.4043C5.83507 9.49204 6.69725 8.98913 7.45866 8.17045C7.66021 7.95993 11.0977 4.68518 11.1649 4.39279C11.1761 4.3577 11.1761 4.21735 11.0977 4.14718C11.0194 4.07701 10.9074 4.1004 10.8178 4.12379C10.6946 4.14718 8.81352 5.45708 5.15204 8.04179C4.61458 8.42775 4.1331 8.61488 3.69641 8.60318C3.21493 8.59148 2.29677 8.32249 1.60254 8.08857C0.762753 7.80788 0.0909229 7.65584 0.146909 7.16463C0.1805 6.90733 0.516415 6.65003 1.14346 6.38103Z" fill="currentColor"/>
    </symbol>

  </defs>
</svg>